<?xml version="1.0" encoding="utf-8"?>
<!-- Generator: Adobe Illustrator 19.2.0, SVG Export Plug-In . SVG Version: 6.00 Build 0)  -->
<svg version="1.1" id="Layer_1" xmlns="http://www.w3.org/2000/svg" xmlns:xlink="http://www.w3.org/1999/xlink" x="0px" y="0px"
	 width="83px" height="25px" viewBox="0 0 83 25" style="enable-background:new 0 0 83 25;" xml:space="preserve">
<style type="text/css">
	.st0{fill:#FFC439;}
	.st1{fill:#002F86;}
	.st2{fill:#1899D6;}
	.st3{fill:#FFFFFF;}
</style>
<path class="st0" d="M79,25H4c-2.2,0-4-1.8-4-4V4c0-2.2,1.8-4,4-4h75c2.2,0,4,1.8,4,4v17C83,23.2,81.2,25,79,25z"/>
<g>
	<polygon class="st1" points="33.4,22.2 36.8,22.2 44.4,8.7 41.1,8.7 38,14.4 37.5,8.7 34.3,8.7 35.6,18.3 	"/>
	<polygon class="st2" points="67.4,18.2 70.1,6 66.8,6 64.1,18.2 	"/>
	<path class="st2" d="M60.8,12c-3.6,0-6,0.8-6.5,3.1c-0.7,3.9,3.7,3.8,5.4,2.1l-0.2,1h3.2l1.4-6.3c0.6-2.7-1.9-3.4-4.1-3.4
		c-1.6,0-2.8,0.4-3.7,0.6L56,11.4c0.4-0.3,1.9-0.7,3.1-0.7C60.3,10.7,61,11,60.8,12z M60.2,15c-0.2,0.9-0.9,1.3-1.7,1.3
		c-0.7,0.1-1.4-0.6-0.9-1.3c0.4-0.7,1.4-0.8,2-0.8c0.3,0,0.6,0,0.8,0C60.3,14.4,60.3,14.7,60.2,15z"/>
	<polygon class="st3" points="70.8,7.6 71,7.6 71,6.2 71.6,6.2 71.6,6 70.3,6 70.3,6.2 70.8,6.2 	"/>
	<path class="st3" d="M72,6.2l0.5,1.4h0.2l0.5-1.4v1.4h0.2V6h-0.3l-0.4,1.1c-0.1,0.2-0.1,0.2-0.1,0.3c0,0-0.1-0.1-0.1-0.2L72.1,6
		h-0.3v1.6H72V6.2z"/>
	<path class="st2" d="M46.7,18.2l0.9-4h2.5c2.4,0,4.4-1.5,4.9-4c0.6-2.8-1.5-4.1-3.2-4.1h-6l-2.6,12.1H46.7z M48.9,8.5h1.7
		c0.9,0,1.4,0.8,1.2,1.6c-0.2,1-1.1,1.7-2,1.7h-1.6L48.9,8.5z"/>
	<path class="st1" d="M16.6,14.2h2.5c2.4,0,4.4-1.5,4.9-4c0.6-2.8-1.4-4.1-3.2-4.1h-6l-2.6,12.1h3.5L16.6,14.2z M17.8,8.5h1.7
		c0.9,0,1.5,0.8,1.1,1.6c-0.2,1-1.1,1.7-2,1.7H17L17.8,8.5z"/>
	<path class="st1" d="M29.6,12c-3.5,0-5.9,0.8-6.4,3.1c-0.7,3.9,3.6,3.8,5.3,2.1l-0.2,1h3.2l1.4-6.3c0.6-2.7-1.9-3.4-4.2-3.4
		c-1.5,0-2.7,0.4-3.6,0.6l-0.3,2.3c0.5-0.3,1.9-0.7,3.1-0.7C29.1,10.7,29.8,11,29.6,12z M29,15c-0.2,0.9-0.9,1.3-1.7,1.3
		c-0.7,0.1-1.3-0.6-0.8-1.3c0.3-0.7,1.3-0.8,1.9-0.8c0.3,0,0.5,0,0.8,0C29.1,14.4,29,14.7,29,15z"/>
</g>
</svg>
