<?xml version="1.0" encoding="utf-8"?>
<!-- Generator: Adobe Illustrator 19.2.0, SVG Export Plug-In . SVG Version: 6.00 Build 0)  -->
<svg version="1.1" id="Layer_1" xmlns="http://www.w3.org/2000/svg" xmlns:xlink="http://www.w3.org/1999/xlink" x="0px" y="0px"
	 width="83px" height="25px" viewBox="0 0 83 25" style="enable-background:new 0 0 83 25;" xml:space="preserve">
<style type="text/css">
	.st0{fill:#3DA8E5;}
	.st1{fill:#FFFFFF;}
</style>
<path class="st0" d="M79,25H4c-2.2,0-4-1.8-4-4V4c0-2.2,1.8-4,4-4h75c2.2,0,4,1.8,4,4v17C83,23.2,81.2,25,79,25z"/>
<g>
	<path class="st1" d="M37.4,9.3l-0.2-1.2h-2.9v10.4h3.3v-6.7c0.5-0.5,1-0.7,1.8-0.7c0.2,0,0.3,0,0.5,0V8c-0.2-0.1-0.4-0.1-0.6-0.1
		C38.4,7.9,37.7,8.4,37.4,9.3z"/>
	<path class="st1" d="M28.4,5.6L28,8l-1,0.2l-0.4,2.6H28v4.6c0,1.2,0.4,2.1,1,2.6c0.5,0.4,1.3,0.6,2.4,0.6c0.8,0,1.3-0.1,1.7-0.2
		v-2.6c-0.2,0-0.7,0.1-1,0.1c-0.6,0-0.9-0.3-0.9-1.2v-4.2h1.7l0.4-2.6h-2.1V5.1L28.4,5.6z"/>
	<path class="st1" d="M21.9,16.1c-0.8,0-2.2-0.4-3.1-0.9l-0.4,2.5c0.8,0.5,2.2,0.9,3.7,0.9c1.2,0,2.1-0.3,2.8-0.8
		c0.8-0.6,1.1-1.5,1.2-2.5c0-1.9-1.1-2.7-2.9-3.3c-1-0.4-1.5-0.7-1.5-1.1c0-0.4,0.3-0.6,0.8-0.6c1,0,2,0.4,2.7,0.7l0.3-2.5
		c-0.6-0.3-1.7-0.7-3.3-0.7c-1.1,0-2,0.3-2.7,0.8c-0.6,0.6-1,1.4-1,2.4c0,1.8,1.1,2.6,2.9,3.2c1.1,0.5,1.5,0.8,1.5,1.2
		C22.9,15.8,22.6,16.1,21.9,16.1z"/>
	<rect x="41.1" y="8.1" class="st1" width="3.3" height="10.3"/>
	<path class="st1" d="M64.9,13.2c0-1.7-0.4-3.1-1.1-4c-0.7-0.9-1.7-1.4-3.1-1.4c-2.8,0-4.5,2.1-4.5,5.4c0,1.8,0.5,3.2,1.4,4.1
		c0.8,0.8,2,1.2,3.5,1.2c1.4,0,2.7-0.4,3.5-0.9l-0.4-2.2c-0.8,0.5-1.7,0.7-2.8,0.7c-0.6,0-1.1-0.1-1.4-0.4s-0.5-0.6-0.6-1.3h5.4
		C64.8,14.2,64.9,13.5,64.9,13.2z M59.4,12.4c0-1.5,0.4-2.3,1.2-2.3c0.8,0,1.1,0.8,1.2,2.3H59.4z"/>
	<path class="st1" d="M50.8,18.6c0.8,0,2-0.2,2.9-1.2c0.9-1,1.3-2.5,1.4-4.5c0-1.7-0.3-3.1-1-3.9c-0.6-0.7-1.4-1.1-2.4-1.1
		s-1.8,0.4-2.6,1.2l-0.2-1H46v14.2l3.3-0.5v-3.4C49.8,18.5,50.3,18.6,50.8,18.6z M49.3,11c0.5-0.5,1-0.6,1.2-0.6
		c0.9,0,1.3,0.9,1.3,2.6c0,1-0.1,1.8-0.4,2.3c-0.3,0.5-0.7,0.8-1.2,0.8c-0.3,0-0.6-0.1-0.9-0.2V11z"/>
	<path class="st1" d="M44.5,5.6c0-0.9-0.7-1.7-1.7-1.7c-0.9,0-1.7,0.7-1.7,1.7c0,0.9,0.7,1.7,1.7,1.7S44.5,6.5,44.5,5.6z"/>
</g>
</svg>
